<svg xmlns="http://www.w3.org/2000/svg" width="512" height="512" viewBox="0 0 512 512" version="1.1">
  <path d="M 239 129.500 L 239 165 253.500 165 C 261.500 165 268 165.450 268 166 C 268 166.550 261.500 167 253.500 167 L 239 167 239 202.500 L 239 238 253.500 238 C 261.500 238 268 238.450 268 239 C 268 239.550 261.500 240 253.500 240 L 239 240 239 275.500 L 239 311 253.500 311 C 261.500 311 268 311.450 268 312 C 268 312.550 261.500 313 253.500 313 L 239 313 239 348.500 L 239 384 253.500 384 C 261.500 384 268 384.450 268 385 C 268 385.550 261.500 386 253.500 386 L 239 386 239 421.500 L 239 457 253.500 457 C 261.500 457 268 457.450 268 458 C 268 458.550 261.500 459 253.500 459 L 239 459 239 485.500 L 239 512 255.500 512 L 272 512 272 485.500 L 272 459 286.500 459 C 294.500 459 301 458.550 301 458 C 301 457.450 294.500 457 286.500 457 L 272 457 272 421.500 L 272 386 286.500 386 C 294.500 386 301 385.550 301 385 C 301 384.450 294.500 384 286.500 384 L 272 384 272 348.500 L 272 313 286.500 313 C 294.500 313 301 312.550 301 312 C 301 311.450 294.500 311 286.500 311 L 272 311 272 275.500 L 272 240 286.500 240 C 294.500 240 301 239.550 301 239 C 301 238.450 294.500 238 286.500 238 L 272 238 272 202.500 L 272 167 286.500 167 C 294.500 167 301 166.550 301 166 C 301 165.450 294.500 165 286.500 165 L 272 165 272 129.500 L 272 94 286.500 94 C 294.500 94 301 93.550 301 93 C 301 92.450 294.500 92 286.500 92 L 272 92 272 46 L 272 0 255.500 0 L 239 0 239 46 L 239 92 224.500 92 C 216.500 92 210 92.450 210 93 C 210 93.550 216.500 94 224.500 94 L 239 94 239 129.500 Z" fill="#1e3a8a"/>
</svg>